<svg xmlns="http://www.w3.org/2000/svg" width="56" height="56" viewBox="0 0 56 56" fill="none"><path fill-rule="evenodd" clip-rule="evenodd" d="M43.3333 18.6667C43.3333 27.1351 36.4683 34 28 34C19.5316 34 12.6666 27.1351 12.6666 18.6667C12.6666 10.1983 19.5316 3.33337 28 3.33337C36.4683 3.33337 43.3333 10.1983 43.3333 18.6667ZM36.8451 32.4001C41.3506 29.4923 44.3333 24.4278 44.3333 18.6667C44.3333 9.64606 37.0206 2.33337 28 2.33337C18.9793 2.33337 11.6666 9.64606 11.6666 18.6667C11.6666 24.4344 14.6562 29.5039 19.1703 32.41L19.1567 32.4101L16.5017 52.3995L16.3334 53.6667L17.4295 53.009L28 46.6667L38.5707 53.0091L39.6667 53.6667L39.4986 52.3997L36.8451 32.4001ZM35.9107 32.9599C33.567 34.2598 30.8699 35 28 35C25.1312 35 22.4352 34.2605 20.0922 32.9616L17.5978 51.7419L27.4855 45.8092C27.8022 45.6192 28.1979 45.6192 28.5145 45.8092L38.4026 51.7421L35.9107 32.9599Z" fill="#5a8af3"></path></svg>