<svg xmlns="http://www.w3.org/2000/svg" width="24" height="24" viewBox="0 0 24 24" fill="none"><path fill-rule="evenodd" clip-rule="evenodd" d="M4.5 4.7C4.5 2.93269 5.93269 1.5 7.7 1.5C9.46728 1.5 10.9 2.93254 10.9 4.69988V5.97059H9.9V4.69988C9.9 3.48488 8.91506 2.5 7.7 2.5C6.48497 2.5 5.5 3.48497 5.5 4.7V10H23.4118C23.7366 10 24 10.2634 24 10.5882C24 14.983 20.9879 18.6742 16.9155 19.7101C16.8915 19.8087 16.8627 19.9054 16.8293 20C16.4175 21.1652 15.3062 22 14 22H11C9.69378 22 8.58254 21.1652 8.17071 20C8.16077 19.9719 8.15124 19.9436 8.14213 19.9151C3.5446 19.2951 0 15.3556 0 10.5882C0 10.2634 0.263362 10 0.588235 10H4.5V4.7ZM9.41177 19H14.5882C19.0959 19 22.7754 15.4544 22.9901 11H5.5H4.5H1.0099C1.22461 15.4544 4.90413 19 9.41177 19ZM14.5882 20H9.41177H9.26756C9.61337 20.5978 10.2597 21 11 21H14C14.7403 21 15.3866 20.5978 15.7324 20H14.5882Z" fill="black"></path></svg>