<svg xmlns="http://www.w3.org/2000/svg" xmlns:xlink="http://www.w3.org/1999/xlink" id="Layer_1" x="0px" y="0px" viewBox="0 0 24 24" style="enable-background:new 0 0 24 24;" xml:space="preserve"><path d="M22,12.2V7c0-1.1-0.9-2-2-2H4C2.9,5,2,5.9,2,7v5.2c-1.2,0.4-2,1.5-2,2.8v5c0,0.5,0.5,1,1,1h2v2c0,0.5,0.5,1,1,1h1 c0.5,0,1-0.5,1-1v-2h12v2c0,0.5,0.5,1,1,1h1c0.5,0,1-0.5,1-1v-2h2c0.5,0,1-0.5,1-1v-5C24,13.7,23.2,12.6,22,12.2z M3,7 c0-0.5,0.5-1,1-1h16c0.5,0,1,0.5,1,1v5h-1v-1c0-1.1-0.9-2-2-2h-3c-1.1,0-2,0.9-2,2v1h-2v-1c0-1.1-0.9-2-2-2H6c-1.1,0-2,0.9-2,2v1H3 V7z M19,11v1h-5v-1c0-0.5,0.5-1,1-1h3C18.5,10,19,10.5,19,11z M10,11v1H5v-1c0-0.5,0.5-1,1-1h3C9.5,10,10,10.5,10,11z M5,23H4v-2h1 V23z M20,23h-1v-2h1V23z M23,20H1v-2h22V20z M23,17H1v-2c0-1.1,0.9-2,2-2h18c1.1,0,2,0.9,2,2V17z"></path></svg>