<svg xmlns="http://www.w3.org/2000/svg" width="56" height="56" viewBox="0 0 56 56" fill="none"><path fill-rule="evenodd" clip-rule="evenodd" d="M48 23.3334C48 31.0981 42.9843 38.4376 37.774 43.9373C35.1894 46.6655 32.6013 48.8945 30.6583 50.4417C29.6876 51.2147 28.8799 51.8159 28.3169 52.2226C28.2005 52.3066 28.0947 52.3823 28 52.4494C27.9053 52.3823 27.7995 52.3066 27.6831 52.2226C27.1201 51.8159 26.3124 51.2147 25.3417 50.4417C23.3987 48.8945 20.8106 46.6655 18.226 43.9373C13.0157 38.4376 8 31.0981 8 23.3334C8 18.029 10.1071 12.942 13.8579 9.19124C17.6086 5.44051 22.6957 3.33337 28 3.33337C33.3043 3.33337 38.3914 5.44051 42.1421 9.19124C45.8929 12.942 48 18.029 48 23.3334ZM49 23.3334C49 39.6667 28 53.6667 28 53.6667C28 53.6667 7 39.6667 7 23.3334C7 17.7638 9.21249 12.4224 13.1508 8.48413C17.089 4.54587 22.4305 2.33337 28 2.33337C33.5695 2.33337 38.911 4.54587 42.8492 8.48413C46.7875 12.4224 49 17.7638 49 23.3334ZM34 23.3334C34 26.6471 31.3137 29.3334 28 29.3334C24.6863 29.3334 22 26.6471 22 23.3334C22 20.0197 24.6863 17.3334 28 17.3334C31.3137 17.3334 34 20.0197 34 23.3334ZM28 30.3334C31.866 30.3334 35 27.1994 35 23.3334C35 19.4674 31.866 16.3334 28 16.3334C24.134 16.3334 21 19.4674 21 23.3334C21 27.1994 24.134 30.3334 28 30.3334Z" fill="#5a8af3"></path></svg>