<svg xmlns="http://www.w3.org/2000/svg" width="56" height="56" viewBox="0 0 56 56" fill="none"><path fill-rule="evenodd" clip-rule="evenodd" d="M28 1.83337C28.2761 1.83337 28.5 2.05723 28.5 2.33337V7.00004C28.5 7.27618 28.2761 7.50004 28 7.50004C27.7239 7.50004 27.5 7.27618 27.5 7.00004V2.33337C27.5 2.05723 27.7239 1.83337 28 1.83337ZM28 38.6667C33.8911 38.6667 38.6667 33.8911 38.6667 28C38.6667 22.109 33.8911 17.3334 28 17.3334C22.109 17.3334 17.3334 22.109 17.3334 28C17.3334 33.8911 22.109 38.6667 28 38.6667ZM39.6667 28C39.6667 34.4434 34.4434 39.6667 28 39.6667C21.5567 39.6667 16.3334 34.4434 16.3334 28C16.3334 21.5567 21.5567 16.3334 28 16.3334C34.4434 16.3334 39.6667 21.5567 39.6667 28ZM28.5 49C28.5 48.7239 28.2761 48.5 28 48.5C27.7239 48.5 27.5 48.7239 27.5 49V53.6667C27.5 53.9428 27.7239 54.1667 28 54.1667C28.2761 54.1667 28.5 53.9428 28.5 53.6667V49ZM9.49313 9.49313C9.68839 9.29786 10.005 9.29786 10.2002 9.49313L13.5136 12.8065C13.7088 13.0017 13.7088 13.3183 13.5136 13.5136C13.3183 13.7088 13.0017 13.7088 12.8065 13.5136L9.49313 10.2002C9.29786 10.005 9.29786 9.68839 9.49313 9.49313ZM43.1935 42.4864C42.9983 42.2911 42.6817 42.2911 42.4864 42.4864C42.2911 42.6817 42.2911 42.9983 42.4864 43.1935L45.7997 46.5069C45.995 46.7021 46.3116 46.7021 46.5069 46.5069C46.7021 46.3116 46.7021 45.995 46.5069 45.7997L43.1935 42.4864ZM1.83337 28C1.83337 27.7239 2.05723 27.5 2.33337 27.5H7.00004C7.27618 27.5 7.50004 27.7239 7.50004 28C7.50004 28.2761 7.27618 28.5 7.00004 28.5H2.33337C2.05723 28.5 1.83337 28.2761 1.83337 28ZM49 27.5C48.7239 27.5 48.5 27.7239 48.5 28C48.5 28.2761 48.7239 28.5 49 28.5H53.6667C53.9428 28.5 54.1667 28.2761 54.1667 28C54.1667 27.7239 53.9428 27.5 53.6667 27.5H49ZM13.5136 42.4864C13.7088 42.6817 13.7088 42.9983 13.5136 43.1935L10.2002 46.5069C10.005 46.7021 9.68839 46.7021 9.49313 46.5069C9.29786 46.3116 9.29786 45.995 9.49313 45.7997L12.8065 42.4864C13.0017 42.2911 13.3183 42.2911 13.5136 42.4864ZM46.5069 10.2002C46.7021 10.005 46.7021 9.68839 46.5069 9.49313C46.3116 9.29786 45.995 9.29786 45.7997 9.49313L42.4864 12.8065C42.2911 13.0017 42.2911 13.3183 42.4864 13.5136C42.6817 13.7088 42.9983 13.7088 43.1935 13.5136L46.5069 10.2002Z" fill="#5a8af3"></path></svg>